<svg aria-hidden="true" display="block" class="Logo__icon--eLIzO vkuiIcon vkuiIcon--136 vkuiIcon--w-136 vkuiIcon--h-24 vkuiIcon--new_logo_vk_with_text" width="136" height="24" viewBox="0 0 136 24" fill="none" style="width: 136px; height: 24px;"><g clip-path="url(#new_logo_vk_with_text:r37:a)"><g clip-path="url(#new_logo_vk_with_text:r37:b)"><path fill="currentColor" fill-rule="evenodd" d="M67 12.501C67 15.843 64.567 18 61.12 18s-5.88-2.157-5.88-5.499S57.672 7 61.12 7 67 9.16 67 12.501m-9.222 0c0 2.073 1.354 3.499 3.342 3.499s3.342-1.426 3.342-3.499S63.108 9.05 61.12 9.05s-3.342 1.378-3.342 3.451m-17.032-.211c.952-.445 1.565-1.185 1.565-2.327 0-1.734-1.586-2.961-3.87-2.961h-5.266V18h5.499c2.368 0 4.018-1.29 4.018-3.046a2.76 2.76 0 0 0-1.946-2.665m-5.14-3.279h2.835c.846 0 1.438.508 1.438 1.206s-.592 1.184-1.438 1.184h-2.834zm3.068 6.98h-3.067v-2.686h3.067c.951 0 1.586.55 1.586 1.353 0 .804-.635 1.333-1.586 1.333M51.836 18h3.194l-5.055-5.71 4.632-5.288h-2.898l-3.68 4.272h-.592V7.002h-2.432V18h2.432v-4.378h.592zm24.63-10.998v4.336h-4.928V7.002h-2.433V18h2.433v-4.441h4.927V18h2.433V7.002zM86.905 18h-2.432V9.223h-3.807V7.002h10.046v2.22h-3.807zm9.702-11c-2.136 0-4.018.89-4.568 2.794l2.242.38c.338-.676 1.1-1.254 2.2-1.254 1.332 0 2.115.895 2.22 2.333h-2.368c-3.236 0-4.844 1.417-4.844 3.448 0 2.051 1.587 3.299 3.828 3.299 1.798 0 3.004-.825 3.532-1.734L99.358 18h1.798v-6.176c0-3.193-1.735-4.824-4.547-4.824m-.719 9.16c-1.184 0-1.945-.613-1.945-1.565 0-.846.613-1.438 2.474-1.438h2.305c0 1.797-1.142 3.003-2.834 3.003M113.73 18h-3.194l-3.807-4.378h-.592V18h-2.432V7.002h2.432v4.272h.592l3.68-4.272h2.898l-4.632 5.288zm4.274 0h2.432V9.223h3.807V7.002h-10.046v2.22h3.807zm12.287-11c3.341 0 5.71 2.202 5.71 5.374 0 .296-.021.55-.042.783h-8.841c.233 1.692 1.459 2.834 3.321 2.834 1.29 0 2.305-.55 2.834-1.333l2.284.381c-.825 2.094-2.982 2.961-5.266 2.961-3.342 0-5.711-2.178-5.711-5.499S126.949 7 130.291 7m3.066 4.253C132.955 9.878 131.813 9 130.291 9c-1.481 0-2.623.836-3.025 2.253z" clip-rule="evenodd"></path><path fill="#07f" d="M11.505 24h1c5.432 0 8.144 0 9.824-1.68C24 20.638 24 17.916 24 12.504v-1.01c0-5.412 0-8.124-1.67-9.814C20.648 0 17.927 0 12.504 0h-1C6.073 0 3.36 0 1.68 1.68 0 3.362 0 6.084 0 11.496v1.01c0 5.412 0 8.124 1.68 9.814C3.362 24 6.084 24 11.506 24"></path><path fill="#fff" d="M12.77 17.29c-5.47 0-8.59-3.75-8.72-9.99h2.74c.09 4.58 2.11 6.52 3.71 6.92V7.3h2.58v3.95c1.58-.17 3.24-1.97 3.8-3.95h2.58c-.43 2.44-2.23 4.24-3.51 4.98 1.28.6 3.33 2.17 4.11 5.01h-2.84c-.61-1.9-2.13-3.37-4.14-3.57v3.57z"></path></g></g><defs><clipPath id="new_logo_vk_with_text:r37:a"><path fill="#fff" d="M.001 0h136v24h-136z"></path></clipPath><clipPath id="new_logo_vk_with_text:r37:b"><path fill="#fff" d="M0-12h136v48H0z"></path></clipPath></defs></svg>